<svg
  id="Capa_2"
  data-name="Capa 2"
  xmlns="http://www.w3.org/2000/svg"
  xmlns:xlink="http://www.w3.org/1999/xlink"
  viewBox="0 0 444.01 94.47"
  width="362"
  height="77"
>
  <defs>
    <style>
      .cls-1 {
        fill: url(#Degradado_sin_nombre_5-3);
      }

      .cls-2 {
        fill: #3f80ac;
      }

      .cls-3 {
        fill: url(#Degradado_sin_nombre_5-2);
      }

      .cls-4 {
        fill: url(#Degradado_sin_nombre_5-6);
      }

      .cls-5 {
        fill: url(#Degradado_sin_nombre_5);
      }

      .cls-6 {
        fill: url(#Degradado_sin_nombre_5-5);
      }

      .cls-7 {
        fill: url(#Degradado_sin_nombre_5-7);
      }

      .cls-8 {
        fill: url(#Degradado_sin_nombre_5-4);
      }
    </style>
    <linearGradient id="Degradado_sin_nombre_5" data-name="Degradado sin nombre 5" x1="-48.03" y1="32.13" x2="466.73" y2="33.89" gradientUnits="userSpaceOnUse">
      <stop offset="0" stop-color="#3f80ac"/>
      <stop offset="1" stop-color="#5c6294"/>
      <stop offset="1" stop-color="#221f20"/>
    </linearGradient>
    <linearGradient id="Degradado_sin_nombre_5-2" data-name="Degradado sin nombre 5" x1="-48.02" y1="31.93" x2="466.7" y2="33.69" xlink:href="#Degradado_sin_nombre_5"/>
    <linearGradient id="Degradado_sin_nombre_5-3" data-name="Degradado sin nombre 5" x1="-48.01" y1="31.78" x2="466.71" y2="33.54" xlink:href="#Degradado_sin_nombre_5"/>
    <linearGradient id="Degradado_sin_nombre_5-4" data-name="Degradado sin nombre 5" x1="-48.03" y1="31.3" x2="466.74" y2="33.07" xlink:href="#Degradado_sin_nombre_5"/>
    <linearGradient id="Degradado_sin_nombre_5-5" data-name="Degradado sin nombre 5" x1="-48.02" y1="31.31" x2="466.74" y2="33.08" xlink:href="#Degradado_sin_nombre_5"/>
    <linearGradient id="Degradado_sin_nombre_5-6" data-name="Degradado sin nombre 5" x1="-47.99" y1="31.1" x2="466.73" y2="32.86" xlink:href="#Degradado_sin_nombre_5"/>
    <linearGradient id="Degradado_sin_nombre_5-7" data-name="Degradado sin nombre 5" x1="-48.03" y1="30.82" x2="466.74" y2="32.58" xlink:href="#Degradado_sin_nombre_5"/>
  </defs>
  <g id="Capa_1-2" data-name="Capa 1">
    <g>
      <g>
        <path class="cls-5" d="m0,32.42C0,13.85,15.32,0,35.29,0c9.59,0,18.19,3.46,24.22,9.33,2.17,2.02,2.17,4.52,0,6.35l-5.04,4.14c-2.17,1.83-4.25,1.73-6.52-.1-3.46-2.79-7.81-4.52-12.65-4.52-9.89,0-17.6,7.21-17.6,17.22s7.71,17.22,17.6,17.22c4.84,0,9.29-1.73,12.65-4.52,2.27-1.83,4.35-1.92,6.52-.1l5.04,4.14c2.17,1.83,2.17,4.33,0,6.35-6.03,5.87-14.63,9.33-24.42,9.33C15.32,64.83,0,50.98,0,32.42Z"/>
        <path class="cls-3" d="m69.89,59.16V5.68c0-2.89,1.68-4.52,4.65-4.52h38.55c2.97,0,4.65,1.54,4.65,4.52v4.71c0,2.89-1.68,4.52-4.65,4.52h-25.8v10.97h18.78c2.97,0,4.65,1.64,4.65,4.52v3.94c0,2.89-1.68,4.52-4.65,4.52h-18.78v11.06h26.1c2.97,0,4.65,1.64,4.65,4.52v4.71c0,2.98-1.68,4.52-4.65,4.52h-38.85c-2.97,0-4.65-1.64-4.65-4.52Z"/>
        <path class="cls-1" d="m128.21,59.16V5.68c0-2.89,1.68-4.52,4.65-4.52h8.11c2.97,0,4.65,1.64,4.65,4.52v44.25h21.15c3.06,0,4.65,1.64,4.65,4.52v4.71c0,2.98-1.58,4.52-4.65,4.52h-33.91c-2.97,0-4.65-1.54-4.65-4.52Z"/>
        <path class="cls-8" d="m194.44,53.38l-2.47,5.77c-1.19,2.98-1.68,4.52-4.74,4.52h-9.98c-3.07,0-4.65-1.64-3.26-4.52l26.49-54.25c1.38-2.79,3.46-4.33,6.43-4.33h1.09c2.97,0,4.94,1.54,6.33,4.33l26.49,54.25c1.38,2.89-.2,4.52-3.26,4.52h-10.58c-3.06,0-3.66-1.54-4.84-4.52l-2.37-5.77-4.55-11.35-7.81-19.24-8.2,19.24-4.74,11.35Z"/>
        <path class="cls-6" d="m239.89,32.42c0-18.47,14.93-32.42,34.2-32.42,8.9,0,16.31,2.89,22.24,7.5,2.37,1.83,2.27,4.42,0,6.44l-4.65,4.14c-2.18,1.92-4.15,1.54-6.62,0-3.06-1.83-6.52-3.08-10.38-3.08-9.69,0-17.4,7.5-17.4,17.51,0,10.68,7.81,17.89,17.79,17.89,4.45,0,7.31-1.06,10.38-2.31v-8.18h-7.71c-2.87,0-4.55-1.64-4.55-4.42v-3.37c0-2.79,1.68-4.42,4.55-4.42h18.39c2.87,0,4.55,1.64,4.55,4.52v21.07c0,2.89-1.78,4.52-4.45,5.87-4.35,2.4-11.17,5.68-22.14,5.68-19.47,0-34.2-13.95-34.2-32.42Z"/>
        <path class="cls-4" d="m311.75,59.16V5.68c0-2.89,1.68-4.52,4.65-4.52h38.55c2.97,0,4.65,1.54,4.65,4.52v4.71c0,2.89-1.68,4.52-4.65,4.52h-25.8v10.97h18.78c2.97,0,4.65,1.64,4.65,4.52v3.94c0,2.89-1.68,4.52-4.65,4.52h-18.78v11.06h26.1c2.96,0,4.65,1.64,4.65,4.52v4.71c0,2.98-1.68,4.52-4.65,4.52h-38.85c-2.97,0-4.65-1.64-4.65-4.52Z"/>
        <path class="cls-7" d="m439.77,63.68h-7.12c-2.97,0-4.25-1.44-4.65-4.33l-3.36-27.41-11.76,27.8c-1.29,2.89-3.36,4.42-6.33,4.42h-.99c-2.97,0-5.04-1.54-6.33-4.42l-11.76-27.89-3.36,27.51c-.3,2.89-1.58,4.33-4.55,4.33h-8.3c-3.06,0-4.65-1.44-4.25-4.33l8.8-54.35c.39-2.79,2.27-4.33,5.24-4.33h.99c2.97,0,4.65,1.54,5.93,4.33l18.09,37.8,17.1-37.8c1.29-2.79,3.07-4.33,5.93-4.33h1.09c2.87,0,4.75,1.54,5.24,4.33l8.5,54.35c.49,2.89-1.09,4.33-4.15,4.33Z"/>
      </g>
      <g>
        <path class="cls-2" d="m180.33,82.83l-1.25,1.06c-.48-.76-1.26-1.14-2.33-1.14-.75,0-1.39.18-1.93.53s-.8.87-.8,1.57c0,.56.19,1.01.57,1.33.38.32,1.09.64,2.13.96.63.2,1.12.37,1.47.51.35.14.74.35,1.16.63.42.28.73.63.92,1.05.19.42.29.92.29,1.51,0,1.17-.44,2.08-1.31,2.7-.87.63-1.94.94-3.19.94-.81,0-1.57-.14-2.27-.42-.71-.28-1.26-.72-1.67-1.3l1.3-1.04c.26.45.64.79,1.14,1.03.49.24,1.03.36,1.59.36.71,0,1.35-.19,1.93-.58.57-.39.86-.92.86-1.58,0-.35-.05-.65-.15-.88-.1-.23-.31-.45-.62-.64-.31-.19-.6-.34-.87-.44-.27-.1-.72-.26-1.38-.47-.15-.05-.25-.08-.33-.11-1.04-.33-1.83-.75-2.37-1.25s-.81-1.23-.81-2.18c0-1.14.42-2.02,1.28-2.65s1.88-.94,3.08-.94c1.53,0,2.73.49,3.58,1.46Z"/>
        <path class="cls-2" d="m185.92,94.16l5.65-12.47h1.43l5.45,12.47h-1.77l-1.3-3.06h-6.41l-1.32,3.06h-1.72Zm8.87-4.44l-2.53-6.13h-.04l-2.66,6.13h5.23Z"/>
        <path class="cls-2" d="m204.48,94.16v-12.47h1.52v11.09h5.86v1.37h-7.38Z"/>
        <path class="cls-2" d="m227.48,81.69v7.71c0,1.49-.39,2.71-1.18,3.65-.78.95-2,1.42-3.66,1.42s-2.87-.47-3.66-1.42c-.78-.94-1.18-2.16-1.18-3.65v-7.71h1.52v7.5c0,.53.05,1.02.16,1.46s.28.86.52,1.24c.24.38.58.68,1.03.89.45.21.98.32,1.59.32s1.15-.11,1.59-.32.79-.51,1.03-.89c.24-.38.42-.79.52-1.24.11-.45.16-.93.16-1.46v-7.5h1.52Z"/>
        <path class="cls-2" d="m234.72,94.16v-12.47h4.92c.67,0,1.36.11,2.05.34.69.23,1.37.58,2.02,1.04.65.46,1.18,1.12,1.59,1.95.41.84.62,1.81.62,2.9s-.21,2.06-.62,2.9c-.41.84-.94,1.49-1.59,1.95-.65.46-1.32.81-2.02,1.04-.69.23-1.38.34-2.05.34h-4.92Zm1.52-11.09v9.72h2.9c1.56,0,2.8-.4,3.75-1.21.94-.8,1.41-2.02,1.41-3.65s-.47-2.85-1.41-3.65c-.94-.8-2.19-1.21-3.75-1.21h-2.9Z"/>
        <path class="cls-2" d="m262.08,94.16v-12.47h3.28c.57,0,1.06.02,1.49.06.43.04.88.13,1.36.26s.87.32,1.18.56.56.58.77,1c.21.43.31.94.31,1.54,0,.9-.28,1.64-.85,2.21-.57.57-1.35.93-2.35,1.08l3.64,5.74h-1.86l-3.47-5.6h-1.96v5.6h-1.52Zm1.52-11.09v4.12h1.36c.39,0,.68,0,.89,0s.49-.03.85-.06c.36-.04.65-.1.85-.19s.42-.21.64-.35c.22-.15.39-.34.49-.59.1-.25.15-.53.15-.86,0-.42-.09-.78-.26-1.07s-.42-.51-.74-.64-.64-.23-.97-.27c-.33-.05-.7-.07-1.12-.07h-2.14Z"/>
        <path class="cls-2" d="m277.48,94.16v-12.47h8.05v1.37h-6.53v3.91h6.1v1.37h-6.1v4.44h6.86v1.37h-8.38Z"/>
        <path class="cls-2" d="m292.55,94.16v-12.47h3.8c1.31,0,2.39.27,3.23.8.84.53,1.26,1.41,1.26,2.62,0,.65-.13,1.21-.39,1.68-.26.48-.61.83-1.04,1.07-.43.24-.88.42-1.34.53-.46.11-.93.17-1.43.17h-2.57v5.6h-1.52Zm1.52-11.09v4.12h2.57c.78,0,1.41-.17,1.87-.52.46-.35.7-.86.7-1.54s-.23-1.19-.7-1.54c-.46-.35-1.09-.52-1.87-.52h-2.57Z"/>
        <path class="cls-2" d="m307.63,94.16v-12.47h3.28c.57,0,1.06.02,1.49.06.43.04.88.13,1.36.26s.87.32,1.18.56.56.58.77,1c.2.43.31.94.31,1.54,0,.9-.28,1.64-.85,2.21-.57.57-1.35.93-2.35,1.08l3.64,5.74h-1.86l-3.47-5.6h-1.95v5.6h-1.52Zm1.52-11.09v4.12h1.36c.39,0,.68,0,.89,0,.2,0,.49-.03.85-.06.36-.04.65-.1.85-.19s.42-.21.64-.35.39-.34.49-.59c.1-.25.15-.53.15-.86,0-.42-.09-.78-.26-1.07s-.42-.51-.74-.64c-.32-.13-.64-.23-.97-.27-.33-.05-.7-.07-1.12-.07h-2.13Z"/>
        <path class="cls-2" d="m333.78,92.62c-1.26,1.24-2.86,1.86-4.8,1.86s-3.54-.62-4.8-1.86-1.89-2.8-1.89-4.69.63-3.45,1.89-4.69c1.26-1.24,2.86-1.86,4.8-1.86s3.54.62,4.8,1.86c1.26,1.24,1.89,2.8,1.89,4.69s-.63,3.45-1.89,4.69Zm-8.45-1.01c.95,1,2.16,1.5,3.65,1.5s2.7-.5,3.65-1.5c.95-1,1.42-2.22,1.42-3.68s-.47-2.68-1.42-3.68c-.95-1-2.16-1.5-3.65-1.5s-2.7.5-3.65,1.5c-.95,1-1.42,2.22-1.42,3.68s.47,2.68,1.42,3.68Z"/>
        <path class="cls-2" d="m342.22,94.16v-12.47h4.92c.68,0,1.36.11,2.05.34s1.37.58,2.02,1.04c.65.46,1.18,1.12,1.59,1.95.41.84.62,1.81.62,2.9s-.21,2.06-.62,2.9c-.41.84-.94,1.49-1.59,1.95-.65.46-1.32.81-2.02,1.04s-1.38.34-2.05.34h-4.92Zm1.52-11.09v9.72h2.9c1.56,0,2.8-.4,3.75-1.21.94-.8,1.41-2.02,1.41-3.65s-.47-2.85-1.41-3.65c-.94-.8-2.19-1.21-3.75-1.21h-2.9Z"/>
        <path class="cls-2" d="m369.82,81.69v7.71c0,1.49-.39,2.71-1.18,3.65-.78.95-2,1.42-3.66,1.42s-2.87-.47-3.66-1.42c-.78-.94-1.18-2.16-1.18-3.65v-7.71h1.52v7.5c0,.53.05,1.02.16,1.46s.28.86.52,1.24c.24.38.58.68,1.03.89.45.21.98.32,1.59.32s1.15-.11,1.59-.32.79-.51,1.03-.89c.24-.38.42-.79.52-1.24.11-.45.16-.93.16-1.46v-7.5h1.52Z"/>
        <path class="cls-2" d="m387.59,83.33l-1.32.93c-.37-.49-.84-.87-1.41-1.13-.57-.26-1.17-.39-1.79-.39-1.4,0-2.56.51-3.49,1.54s-1.39,2.24-1.39,3.64c0,1.47.46,2.7,1.38,3.69.92.99,2.09,1.49,3.51,1.49,1.54,0,2.78-.58,3.71-1.74l1.14.93c-1.11,1.46-2.73,2.18-4.85,2.18-1.85,0-3.39-.62-4.64-1.87-1.25-1.24-1.87-2.81-1.87-4.68s.62-3.41,1.85-4.67c1.23-1.26,2.79-1.88,4.67-1.88,1.99,0,3.5.65,4.52,1.95Z"/>
        <path class="cls-2" d="m402.97,81.69v1.37h-4.23v11.09h-1.52v-11.09h-4.23v-1.37h9.99Z"/>
        <path class="cls-2" d="m409.1,94.16v-12.47h1.52v12.47h-1.52Z"/>
        <path class="cls-2" d="m421.3,94.16l-4.9-12.47h1.72l3.94,10.25h.04l4.07-10.25h1.61l-5.01,12.47h-1.47Z"/>
        <path class="cls-2" d="m431.24,94.16l5.65-12.47h1.43l5.45,12.47h-1.77l-1.3-3.06h-6.41l-1.32,3.06h-1.72Zm8.87-4.44l-2.53-6.13h-.04l-2.66,6.13h5.23Z"/>
      </g>
    </g>
  </g>
</svg>