<svg xmlns="http://www.w3.org/2000/svg" id="Capa_2" data-name="Capa 2" viewBox="0 0 317.26 67.45"><defs><style>      .cls-1 {        fill: #fff;      }      .cls-2 {        isolation: isolate;      }    </style></defs><g id="Capa_2-2" data-name="Capa 2"><g id="Capa_1-2" data-name="Capa 1-2"><g><g><path class="cls-1" d="m0,23.14C0,9.89,10.94,0,25.2,0c6.85,0,12.99,2.47,17.29,6.66,1.55,1.44,1.55,3.23,0,4.53l-3.6,2.95c-1.55,1.31-3.03,1.24-4.66-.07-2.47-1.99-5.58-3.23-9.03-3.23-7.06,0-12.56,5.15-12.56,12.29s5.5,12.29,12.56,12.29c3.46,0,6.63-1.24,9.03-3.23,1.62-1.3,3.11-1.37,4.66-.07l3.6,2.95c1.55,1.31,1.55,3.09,0,4.53-4.31,4.19-10.45,6.66-17.43,6.66-14.12.03-25.06-9.86-25.06-23.12Z"></path><path class="cls-1" d="m49.9,42.23V4.05c0-2.06,1.2-3.23,3.32-3.23h27.52c2.12,0,3.32,1.1,3.32,3.23v3.36c0,2.06-1.2,3.23-3.32,3.23h-18.42v7.83h13.41c2.12,0,3.32,1.17,3.32,3.23v2.82c0,2.06-1.2,3.23-3.32,3.23h-13.41v7.9h18.63c2.12,0,3.32,1.17,3.32,3.23v3.36c0,2.13-1.2,3.23-3.32,3.23h-27.74c-2.12,0-3.32-1.17-3.32-3.23h0Z"></path><path class="cls-1" d="m91.54,42.23V4.05c0-2.06,1.2-3.23,3.32-3.23h5.79c2.12,0,3.32,1.17,3.32,3.23v31.59h15.1c2.19,0,3.32,1.17,3.32,3.23v3.36c0,2.13-1.13,3.23-3.32,3.23h-24.21c-2.12,0-3.32-1.1-3.32-3.23Z"></path><path class="cls-1" d="m138.82,38.11l-1.76,4.12c-.85,2.13-1.2,3.23-3.39,3.23h-7.13c-2.19,0-3.32-1.17-2.33-3.23L143.13,3.5c.99-1.99,2.47-3.09,4.59-3.09h.78c2.12,0,3.53,1.1,4.52,3.09l18.91,38.73c.99,2.06-.14,3.23-2.33,3.23h-7.55c-2.19,0-2.61-1.1-3.46-3.23l-1.69-4.12-3.25-8.1-5.58-13.73-5.86,13.73-3.39,8.1h0Z"></path><path class="cls-1" d="m171.27,23.14c0-13.19,10.66-23.14,24.42-23.14,6.35,0,11.64,2.06,15.88,5.36,1.69,1.31,1.62,3.16,0,4.6l-3.32,2.95c-1.55,1.37-2.96,1.1-4.73,0-2.19-1.31-4.66-2.2-7.41-2.2-6.92,0-12.42,5.36-12.42,12.5,0,7.62,5.58,12.77,12.7,12.77,3.18,0,5.22-.76,7.41-1.65v-5.84h-5.51c-2.05,0-3.25-1.17-3.25-3.16v-2.4c0-1.99,1.2-3.16,3.25-3.16h13.13c2.05,0,3.25,1.17,3.25,3.23v15.04c0,2.06-1.27,3.23-3.18,4.19-3.11,1.72-7.98,4.05-15.81,4.05-13.9,0-24.42-9.96-24.42-23.14h0Z"></path><path class="cls-1" d="m222.58,42.23V4.05c0-2.06,1.2-3.23,3.32-3.23h27.52c2.12,0,3.32,1.1,3.32,3.23v3.36c0,2.06-1.2,3.23-3.32,3.23h-18.42v7.83h13.41c2.12,0,3.32,1.17,3.32,3.23v2.82c0,2.06-1.2,3.23-3.32,3.23h-13.41v7.9h18.63c2.12,0,3.32,1.17,3.32,3.23v3.36c0,2.13-1.2,3.23-3.32,3.23h-27.74c-2.12,0-3.32-1.17-3.32-3.23h.01Z"></path><path class="cls-1" d="m313.97,45.46h-5.08c-2.12,0-3.03-1.03-3.32-3.09l-2.4-19.57-8.4,19.85c-.92,2.06-2.4,3.16-4.52,3.16h-.71c-2.12,0-3.6-1.1-4.52-3.16l-8.4-19.92-2.4,19.64c-.21,2.06-1.13,3.09-3.25,3.09h-5.93c-2.19,0-3.32-1.03-3.03-3.09l6.28-38.8c.28-1.99,1.62-3.09,3.74-3.09h.71c2.12,0,3.32,1.1,4.23,3.09l12.92,26.99,12.21-26.99c.92-1.99,2.19-3.09,4.23-3.09h.78c2.05,0,3.39,1.1,3.74,3.09l6.07,38.8c.35,2.06-.78,3.09-2.96,3.09h0Z"></path></g><g class="cls-2"><g class="cls-2"><path class="cls-1" d="m128.76,59.14l-.89.75c-.35-.54-.9-.82-1.67-.82-.54,0-.99.13-1.38.38-.38.25-.58.62-.58,1.12,0,.4.14.72.41.95.27.23.78.46,1.52.69.45.14.8.26,1.05.37.25.1.53.25.83.45.3.2.52.45.66.75.14.3.21.66.21,1.08,0,.84-.31,1.48-.94,1.93-.63.45-1.39.67-2.29.67-.58,0-1.12-.1-1.62-.3-.5-.2-.9-.51-1.2-.93l.93-.74c.19.32.46.56.82.74s.73.26,1.14.26c.51,0,.97-.14,1.38-.42.41-.28.61-.65.61-1.13,0-.25-.04-.46-.11-.63-.07-.17-.22-.32-.45-.46-.22-.14-.43-.24-.62-.31-.19-.07-.52-.18-.98-.33-.1-.03-.18-.06-.23-.08-.74-.23-1.31-.53-1.7-.89-.39-.36-.58-.88-.58-1.56,0-.81.3-1.44.91-1.89s1.34-.67,2.21-.67c1.1,0,1.95.35,2.56,1.04Z"></path><path class="cls-1" d="m132.75,67.22l4.04-8.9h1.02l3.9,8.9h-1.27l-.93-2.19h-4.58l-.95,2.19h-1.23Zm6.34-3.17l-1.81-4.37h-.03l-1.9,4.37h3.74Z"></path><path class="cls-1" d="m146.02,67.22v-8.9h1.09v7.92h4.19v.98h-5.28Z"></path><path class="cls-1" d="m162.46,58.32v5.5c0,1.06-.28,1.93-.84,2.61-.56.67-1.43,1.01-2.62,1.01s-2.05-.34-2.62-1.01c-.56-.67-.84-1.54-.84-2.61v-5.5h1.09v5.35c0,.38.04.72.12,1.04.08.32.2.61.38.89.17.27.42.48.74.63s.7.23,1.14.23.82-.08,1.14-.23.56-.36.74-.63c.17-.27.3-.57.38-.89.08-.32.12-.67.12-1.04v-5.35h1.09Z"></path><path class="cls-1" d="m167.63,67.22v-8.9h3.52c.48,0,.97.08,1.47.25.5.16.98.41,1.44.74.47.33.85.79,1.14,1.39.29.6.44,1.29.44,2.07s-.15,1.47-.44,2.07c-.29.6-.67,1.06-1.14,1.4-.47.33-.95.58-1.44.74s-.99.25-1.47.25h-3.52Zm1.09-7.92v6.94h2.07c1.11,0,2.01-.29,2.68-.86s1.01-1.44,1.01-2.61-.34-2.04-1.01-2.61c-.67-.57-1.57-.86-2.68-.86h-2.07Z"></path><path class="cls-1" d="m187.18,67.22v-8.9h2.34c.41,0,.76.01,1.07.04s.63.09.97.19c.34.1.62.23.84.4.22.17.4.41.55.72.15.31.22.67.22,1.1,0,.65-.2,1.17-.61,1.58-.41.41-.97.66-1.68.77l2.6,4.1h-1.33l-2.49-4h-1.4v4h-1.09Zm1.09-7.92v2.94h.97c.28,0,.49,0,.63,0,.15,0,.35-.02.61-.04.26-.03.46-.07.61-.13s.3-.15.46-.25c.16-.1.28-.24.35-.42.07-.18.11-.38.11-.62,0-.3-.06-.56-.19-.77s-.3-.36-.53-.46-.46-.16-.69-.2c-.23-.03-.5-.05-.8-.05h-1.53Z"></path><path class="cls-1" d="m198.18,67.22v-8.9h5.76v.98h-4.67v2.79h4.36v.98h-4.36v3.17h4.91v.98h-6Z"></path><path class="cls-1" d="m208.96,67.22v-8.9h2.72c.94,0,1.71.19,2.31.57.6.38.9,1,.9,1.87,0,.46-.09.86-.28,1.2s-.43.59-.74.77-.63.3-.96.38c-.33.08-.67.12-1.02.12h-1.84v4h-1.09Zm1.09-7.92v2.94h1.84c.56,0,1.01-.12,1.34-.37s.5-.61.5-1.1-.17-.85-.5-1.1c-.33-.25-.78-.37-1.34-.37h-1.84Z"></path><path class="cls-1" d="m219.73,67.22v-8.9h2.34c.4,0,.76.01,1.07.04.31.03.63.09.97.19.34.1.62.23.84.4s.4.41.55.72c.15.31.22.67.22,1.1,0,.65-.2,1.17-.61,1.58s-.97.66-1.68.77l2.6,4.1h-1.33l-2.49-4h-1.4v4h-1.09Zm1.09-7.92v2.94h.97c.28,0,.49,0,.63,0,.15,0,.35-.02.61-.04.26-.03.46-.07.61-.13.15-.06.3-.15.46-.25.16-.1.28-.24.35-.42s.11-.38.11-.62c0-.3-.06-.56-.19-.77s-.3-.36-.53-.46-.46-.16-.69-.2c-.23-.03-.5-.05-.8-.05h-1.53Z"></path><path class="cls-1" d="m238.43,66.12c-.9.88-2.05,1.33-3.44,1.33s-2.54-.44-3.44-1.33c-.9-.88-1.35-2-1.35-3.35s.45-2.47,1.35-3.35,2.05-1.33,3.44-1.33,2.54.44,3.44,1.33,1.35,2,1.35,3.35-.45,2.46-1.35,3.35Zm-6.05-.72c.68.71,1.55,1.07,2.61,1.07s1.93-.36,2.61-1.07c.68-.71,1.02-1.59,1.02-2.63s-.34-1.92-1.02-2.63-1.55-1.07-2.61-1.07-1.93.36-2.61,1.07-1.02,1.59-1.02,2.63.34,1.91,1.02,2.63Z"></path><path class="cls-1" d="m244.46,67.22v-8.9h3.52c.48,0,.97.08,1.47.25.5.16.98.41,1.44.74.47.33.85.79,1.14,1.39s.44,1.29.44,2.07-.15,1.47-.44,2.07-.67,1.06-1.14,1.4c-.47.33-.95.58-1.44.74-.5.16-.99.25-1.47.25h-3.52Zm1.09-7.92v6.94h2.07c1.11,0,2.01-.29,2.68-.86.67-.57,1.01-1.44,1.01-2.61s-.34-2.04-1.01-2.61c-.67-.57-1.57-.86-2.68-.86h-2.07Z"></path><path class="cls-1" d="m264.19,58.32v5.5c0,1.06-.28,1.93-.84,2.61-.56.67-1.43,1.01-2.62,1.01s-2.05-.34-2.62-1.01c-.56-.67-.84-1.54-.84-2.61v-5.5h1.09v5.35c0,.38.04.72.12,1.04.08.32.2.61.38.89s.42.48.74.63c.32.15.7.23,1.14.23s.82-.08,1.14-.23.56-.36.74-.63c.17-.27.3-.57.38-.89.08-.32.12-.67.12-1.04v-5.35h1.09Z"></path><path class="cls-1" d="m276.89,59.49l-.95.67c-.27-.35-.6-.62-1.01-.8-.41-.18-.83-.28-1.28-.28-1,0-1.83.37-2.5,1.1-.67.73-1,1.6-1,2.6,0,1.05.33,1.92.98,2.63.66.71,1.49,1.06,2.51,1.06,1.11,0,1.99-.42,2.65-1.24l.82.67c-.79,1.04-1.95,1.56-3.47,1.56-1.32,0-2.43-.44-3.32-1.33-.89-.89-1.34-2-1.34-3.34s.44-2.44,1.32-3.33,1.99-1.34,3.34-1.34c1.42,0,2.5.47,3.24,1.4Z"></path><path class="cls-1" d="m287.88,58.32v.98h-3.03v7.92h-1.09v-7.92h-3.03v-.98h7.15Z"></path><path class="cls-1" d="m292.26,67.22v-8.9h1.09v8.9h-1.09Z"></path></g><g class="cls-2"><path class="cls-1" d="m301.19,67.22l-3.51-8.9h1.23l2.82,7.32h.03l2.91-7.32h1.15l-3.59,8.9h-1.05Z"></path></g><g class="cls-2"><path class="cls-1" d="m308.3,67.22l4.04-8.9h1.02l3.9,8.9h-1.27l-.93-2.19h-4.58l-.95,2.19h-1.23Zm6.34-3.17l-1.81-4.37h-.03l-1.9,4.37h3.74Z"></path></g></g></g></g></g></svg>